<svg width="24" height="24" viewBox="0 0 24 24" fill="none" xmlns="http://www.w3.org/2000/svg">
<path d="M15.71 19.2902C15.8037 19.3831 15.8781 19.4937 15.9289 19.6156C15.9797 19.7375 16.0058 19.8682 16.0058 20.0002C16.0058 20.1322 15.9797 20.2629 15.9289 20.3848C15.8781 20.5066 15.8037 20.6172 15.71 20.7102C15.617 20.8039 15.5064 20.8783 15.3846 20.9291C15.2627 20.9798 15.132 21.006 15 21.006C14.868 21.006 14.7373 20.9798 14.6154 20.9291C14.4936 20.8783 14.383 20.8039 14.29 20.7102L6.29 12.7102C6.19627 12.6172 6.12188 12.5066 6.07111 12.3848C6.02034 12.2629 5.9942 12.1322 5.9942 12.0002C5.9942 11.8682 6.02034 11.7375 6.07111 11.6156C6.12188 11.4937 6.19627 11.3831 6.29 11.2902L14.29 3.29019C14.4783 3.10188 14.7337 2.99609 15 2.99609C15.1319 2.99609 15.2624 3.02207 15.3842 3.07253C15.5061 3.12299 15.6168 3.19695 15.71 3.29019C15.8032 3.38342 15.8772 3.49411 15.9277 3.61594C15.9781 3.73776 16.0041 3.86833 16.0041 4.00019C16.0041 4.13204 15.9781 4.26261 15.9277 4.38443C15.8772 4.50626 15.8032 4.61695 15.71 4.71019L8.41 12.0002L15.71 19.2902Z" fill="#201600"/>
</svg>
