<svg width="25" height="24" viewBox="0 0 25 24" fill="none" xmlns="http://www.w3.org/2000/svg">
<path d="M12.1276 7.897C12.2563 8.04153 12.3248 8.22968 12.3191 8.42295C12.3134 8.61622 12.2339 8.80002 12.0969 8.93674C11.9599 9.07347 11.7757 9.15279 11.582 9.15847C11.3883 9.16416 11.1998 9.09579 11.055 8.96735L9.80358 7.71861V17.3517C9.80358 17.5883 9.7094 17.8152 9.54177 17.9824C9.37414 18.1497 9.14679 18.2437 8.90972 18.2437C8.67266 18.2437 8.44531 18.1497 8.27768 17.9824C8.11005 17.8152 8.01587 17.5883 8.01587 17.3517V7.71861L6.76448 8.96735C6.61965 9.09579 6.4311 9.16416 6.23742 9.15847C6.04373 9.15279 5.85955 9.07347 5.72253 8.93674C5.58552 8.80002 5.50603 8.61622 5.50033 8.42295C5.49463 8.22968 5.56314 8.04153 5.69186 7.897L8.37341 5.22113C8.51582 5.07952 8.70868 5 8.90972 5C9.11077 5 9.30363 5.07952 9.44604 5.22113L12.1276 7.897ZM19.2784 15.0327C19.136 14.891 18.9431 14.8115 18.7421 14.8115C18.541 14.8115 18.3482 14.891 18.2058 15.0327L16.9544 16.2814V6.64826C16.9544 6.4117 16.8602 6.18483 16.6926 6.01756C16.525 5.85028 16.2976 5.75631 16.0605 5.75631C15.8235 5.75631 15.5961 5.85028 15.4285 6.01756C15.2609 6.18483 15.1667 6.4117 15.1667 6.64826V16.2814L13.9153 15.0327C13.8465 14.9554 13.7626 14.893 13.6688 14.8493C13.575 14.8056 13.4732 14.7815 13.3697 14.7785C13.2662 14.7754 13.1632 14.7935 13.067 14.8316C12.9708 14.8698 12.8833 14.9271 12.8101 15.0002C12.7369 15.0732 12.6794 15.1605 12.6412 15.2565C12.603 15.3525 12.5849 15.4553 12.5879 15.5586C12.591 15.6619 12.6151 15.7634 12.659 15.8571C12.7028 15.9507 12.7653 16.0344 12.8427 16.103L15.5242 18.7789C15.6666 18.9205 15.8595 19 16.0605 19C16.2616 19 16.4544 18.9205 16.5968 18.7789L19.2784 16.103C19.4203 15.9609 19.5 15.7684 19.5 15.5678C19.5 15.3672 19.4203 15.1748 19.2784 15.0327Z" fill="#3B3B3B"/>
</svg>
