<svg width="32" height="32" viewBox="0 0 32 32" fill="none" xmlns="http://www.w3.org/2000/svg">
<path fill-rule="evenodd" clip-rule="evenodd" d="M19.6066 10.1802C20.6363 10.7669 21.4253 11.7167 21.4253 13.0392V17.4834L23.628 19.9938C24.4673 20.9503 23.7944 22.4589 22.5284 22.4589H9.47159C8.20559 22.4589 7.53272 20.9503 8.37204 19.9938L10.5747 17.4834V13.0391C10.5747 11.7166 11.3637 10.7669 12.3934 10.1801C13.4117 9.59992 14.7249 9.32947 16 9.32947C17.2751 9.32947 18.5883 9.59992 19.6066 10.1802ZM13.0123 11.2866C12.2436 11.7246 11.8336 12.3121 11.8336 13.0391V17.564C11.8336 17.8232 11.7395 18.0724 11.5699 18.2656L9.31451 20.8361C9.19461 20.9728 9.29074 21.1883 9.47159 21.1883H22.5284C22.7093 21.1883 22.8054 20.9728 22.6855 20.8361L20.4301 18.2656C20.2605 18.0724 20.1664 17.8232 20.1664 17.564V13.0392C20.1664 12.3121 19.7564 11.7246 18.9877 11.2866C18.2075 10.842 17.1228 10.6001 16 10.6001C14.8772 10.6001 13.7925 10.842 13.0123 11.2866Z" fill="#3B3B3B" stroke="#3B3B3B" stroke-width="0.5" stroke-linecap="round"/>
<path d="M17.6785 8.69412C17.6785 9.62975 16.927 10.3882 15.9999 10.3882C15.0729 10.3882 14.3214 9.62975 14.3214 8.69412C14.3214 7.75848 15.0729 7 15.9999 7C16.927 7 17.6785 7.75848 17.6785 8.69412Z" fill="#3B3B3B"/>
<path fill-rule="evenodd" clip-rule="evenodd" d="M12.433 21.1884H19.5664V21.8236C19.5664 22.7005 19.163 23.5174 18.4863 24.1029C17.8125 24.6857 16.9169 25.0001 15.9995 25.0001C15.0865 25.0001 14.1687 24.6883 13.492 24.1029C12.805 23.5086 12.433 22.6875 12.433 21.8236L12.433 21.1884ZM13.8161 22.4589C13.9179 22.7084 14.0827 22.9404 14.3113 23.1382C14.7363 23.5059 15.3545 23.7295 15.9995 23.7295C16.6403 23.7295 17.239 23.5085 17.667 23.1382C17.8986 22.9378 18.068 22.7053 18.1742 22.4589H13.8161Z" fill="#3B3B3B" stroke="#3B3B3B" stroke-width="0.5"/>
</svg>
