<svg width="32" height="32" viewBox="0 0 32 32" fill="none" xmlns="http://www.w3.org/2000/svg">
<path d="M11 20C11 19.5911 10.751 19.2234 10.3714 19.0715C10.1408 18.9793 9.52928 18.5989 8.97792 17.8874C8.44539 17.2003 8 16.244 8 15C8 11.9056 11.3333 9 16 9C18.3185 9 20.3467 9.62235 21.7683 10.6766C23.1682 11.7147 24 13.1783 24 15C24 16.6737 23.2826 18.0068 22.025 18.95C20.7418 19.9124 18.8455 20.5 16.5 20.5C16.2966 20.5 16.098 20.562 15.9308 20.6778L11 24.0914V20Z" stroke="#3B3B3B" stroke-width="2" stroke-linecap="round" stroke-linejoin="round"/>
</svg>
