<svg width="24" height="24" viewBox="0 0 24 24" fill="none" xmlns="http://www.w3.org/2000/svg">
<path d="M7.83333 14.3333C7.83333 14.1289 7.70886 13.945 7.51903 13.8691C7.28801 13.7767 6.7739 13.4476 6.31882 12.8604C5.87316 12.2853 5.5 11.4831 5.5 10.4444C5.5 7.82336 8.28593 5.5 12 5.5C13.8496 5.5 15.4887 5.99605 16.6519 6.85866C17.8043 7.7132 18.5 8.93111 18.5 10.4444C18.5 11.8368 17.8982 12.9548 16.8528 13.7389C15.7945 14.5326 14.2561 15 12.3889 15C12.2872 15 12.1879 15.031 12.1043 15.0889L7.83333 18.0457L7.83333 14.3333Z" stroke="#3B3B3B" stroke-linecap="round" stroke-linejoin="round"/>
</svg>
