<svg width="32" height="32" viewBox="0 0 32 32" fill="none" xmlns="http://www.w3.org/2000/svg">
<path fill-rule="evenodd" clip-rule="evenodd" d="M21 19C19.8954 19 19 18.1046 19 17C19 15.8954 19.8954 15 21 15C22.1046 15 23 15.8954 23 17C23 18.1046 22.1046 19 21 19ZM16 19C14.8954 19 14 18.1046 14 17C14 15.8954 14.8954 15 16 15C17.1046 15 18 15.8954 18 17C18 18.1046 17.1046 19 16 19ZM9 17C9 18.1046 9.89543 19 11 19C12.1046 19 13 18.1046 13 17C13 15.8954 12.1046 15 11 15C9.89543 15 9 15.8954 9 17Z" fill="#3B3B3B"/>
</svg>
