<svg width="33" height="32" viewBox="0 0 33 32" fill="none" xmlns="http://www.w3.org/2000/svg">
<path fill-rule="evenodd" clip-rule="evenodd" d="M21.5 19C20.3954 19 19.5 18.1046 19.5 17C19.5 15.8954 20.3954 15 21.5 15C22.6046 15 23.5 15.8954 23.5 17C23.5 18.1046 22.6046 19 21.5 19ZM16.5 19C15.3954 19 14.5 18.1046 14.5 17C14.5 15.8954 15.3954 15 16.5 15C17.6046 15 18.5 15.8954 18.5 17C18.5 18.1046 17.6046 19 16.5 19ZM9.5 17C9.5 18.1046 10.3954 19 11.5 19C12.6046 19 13.5 18.1046 13.5 17C13.5 15.8954 12.6046 15 11.5 15C10.3954 15 9.5 15.8954 9.5 17Z" fill="#C8C8C8"/>
</svg>
