<svg width="24" height="24" viewBox="0 0 24 24" fill="none" xmlns="http://www.w3.org/2000/svg">
<g clip-path="url(#clip0_782_5043)">
<path d="M11.9991 11.4859C14.1174 11.4859 15.8347 9.81007 15.8347 7.74294C15.8347 5.67581 14.1174 4 11.9991 4C9.88086 4 8.16357 5.67581 8.16357 7.74294V7.74376C8.16567 9.81007 9.8817 11.4842 11.9991 11.4859Z" fill="#749FF0"/>
<path d="M17.0168 14.578C14.3171 11.8756 9.88339 11.8207 7.11409 14.4552C5.763 15.7405 5.00084 17.5039 5 19.3451C5 19.7069 5.30034 20 5.67114 20H18.3289C18.6997 20 19 19.7069 19 19.3451C19.0025 18.6504 18.8926 17.9599 18.6745 17.2992C18.3494 16.2771 17.7815 15.3447 17.0168 14.578Z" fill="#749FF0"/>
</g>
<defs>
<clipPath id="clip0_782_5043">
<rect width="14" height="16" fill="white" transform="translate(5 4)"/>
</clipPath>
</defs>
</svg>
