<svg width="24" height="24" viewBox="0 0 24 24" fill="none" xmlns="http://www.w3.org/2000/svg">
<path fill-rule="evenodd" clip-rule="evenodd" d="M19 12C19 15.866 15.866 19 12 19C8.13401 19 5 15.866 5 12C5 8.13401 8.13401 5 12 5C15.866 5 19 8.13401 19 12ZM20 12C20 16.4183 16.4183 20 12 20C7.58172 20 4 16.4183 4 12C4 7.58172 7.58172 4 12 4C16.4183 4 20 7.58172 20 12ZM11.7715 11.002H10.8691V11.4121V11.8984V12.2852H11.7715C12.0605 12.2852 12.3105 12.3301 12.5215 12.4199C12.7324 12.5098 12.8945 12.6504 13.0078 12.8418C13.1211 13.0293 13.1777 13.2793 13.1777 13.5918C13.1777 13.834 13.125 14.0469 13.0195 14.2305C12.918 14.4102 12.7695 14.5508 12.5742 14.6523C12.3828 14.75 12.1523 14.7988 11.8828 14.7988C11.6445 14.7988 11.4277 14.75 11.2324 14.6523C11.041 14.5547 10.8906 14.4199 10.7812 14.248C10.6719 14.0762 10.6172 13.8809 10.6172 13.6621H8.92383C8.92383 14.084 9.00586 14.4492 9.16992 14.7578C9.33789 15.0625 9.56055 15.3164 9.83789 15.5195C10.1191 15.7188 10.4316 15.8691 10.7754 15.9707C11.123 16.0684 11.4766 16.1172 11.8359 16.1172C12.2695 16.1172 12.6699 16.0625 13.0371 15.9531C13.4043 15.8398 13.7246 15.6758 13.998 15.4609C14.2754 15.2461 14.4902 14.9844 14.6426 14.6758C14.7949 14.3633 14.8711 14.0078 14.8711 13.6094C14.8711 13.2852 14.8105 12.9902 14.6895 12.7246C14.5684 12.4551 14.3887 12.2227 14.1504 12.0273C13.9462 11.8566 13.7003 11.7203 13.4129 11.6184C13.6374 11.5141 13.8344 11.3887 14.0039 11.2422C14.2383 11.0391 14.418 10.8125 14.543 10.5625C14.668 10.3086 14.7305 10.0469 14.7305 9.77734C14.7305 9.24609 14.6094 8.80078 14.3672 8.44141C14.125 8.08203 13.7871 7.81055 13.3535 7.62695C12.9199 7.43945 12.4141 7.3457 11.8359 7.3457C11.3242 7.3457 10.8555 7.44336 10.4297 7.63867C10.0039 7.83398 9.66406 8.10547 9.41016 8.45312C9.16016 8.80078 9.03516 9.20898 9.03516 9.67773H10.7285C10.7285 9.4668 10.7812 9.28711 10.8867 9.13867C10.9922 8.99023 11.1328 8.875 11.3086 8.79297C11.4844 8.71094 11.6758 8.66992 11.8828 8.66992C12.1445 8.66992 12.3613 8.71875 12.5332 8.81641C12.7051 8.91016 12.832 9.04297 12.9141 9.21484C13 9.38281 13.043 9.57617 13.043 9.79492C13.043 10.0371 12.9961 10.25 12.9023 10.4336C12.8125 10.6133 12.6738 10.7539 12.4863 10.8555C12.2988 10.9531 12.0605 11.002 11.7715 11.002Z" fill="#CC9059"/>
</svg>
