<svg width="24" height="24" viewBox="0 0 24 24" fill="none" xmlns="http://www.w3.org/2000/svg">
<path fill-rule="evenodd" clip-rule="evenodd" d="M19 12C19 15.866 15.866 19 12 19C8.13401 19 5 15.866 5 12C5 8.13401 8.13401 5 12 5C15.866 5 19 8.13401 19 12ZM20 12C20 16.4183 16.4183 20 12 20C7.58172 20 4 16.4183 4 12C4 7.58172 7.58172 4 12 4C16.4183 4 20 7.58172 20 12ZM14.9766 16V14.6816H11.3203L12.8027 13.0176C13.0879 12.7285 13.3477 12.4492 13.582 12.1797C13.8164 11.9102 14.0156 11.6445 14.1797 11.3828C14.3477 11.1172 14.4766 10.8516 14.5664 10.5859C14.6562 10.3164 14.7012 10.041 14.7012 9.75977C14.7012 9.25977 14.5938 8.83008 14.3789 8.4707C14.168 8.10742 13.8555 7.83008 13.4414 7.63867C13.0312 7.44336 12.5273 7.3457 11.9297 7.3457C11.3242 7.3457 10.8008 7.47266 10.3594 7.72656C9.91797 7.97656 9.57617 8.31445 9.33398 8.74023C9.0918 9.16211 8.9707 9.62695 8.9707 10.1348H10.6641C10.6641 9.85352 10.7109 9.60156 10.8047 9.37891C10.9023 9.15625 11.043 8.98242 11.2266 8.85742C11.4141 8.73242 11.6367 8.66992 11.8945 8.66992C12.1367 8.66992 12.3398 8.7207 12.5039 8.82227C12.6719 8.92383 12.7988 9.06836 12.8848 9.25586C12.9707 9.43945 13.0137 9.66016 13.0137 9.91797C13.0137 10.0898 12.9766 10.2715 12.9023 10.4629C12.832 10.6504 12.7168 10.8633 12.5566 11.1016C12.3965 11.3359 12.1777 11.6074 11.9004 11.916L9.14062 14.875V16H14.9766Z" fill="#E1E1E1"/>
</svg>
