<svg width="48" height="48" viewBox="0 0 48 48" fill="none" xmlns="http://www.w3.org/2000/svg">
<path fill-rule="evenodd" clip-rule="evenodd" d="M17.0147 15.0196C17.0147 11.1428 20.1574 8 24.0343 8C27.9111 8 31.0539 11.1428 31.0539 15.0196V19.0294H17.0147V15.0196ZM15.0147 21.0294V21.0343H17.0147V21.0294H31.0539V21.0343H33.0539V21.0294H36.0686L36.0686 39.0833H12V21.0294H15.0147ZM15.0147 19.0294V15.0196C15.0147 10.0382 19.0529 6 24.0343 6C29.0157 6 33.0539 10.0382 33.0539 15.0196V19.0294H36.0686C37.1732 19.0294 38.0686 19.9248 38.0686 21.0294V39.0833C38.0686 40.1879 37.1732 41.0833 36.0686 41.0833H12C10.8954 41.0833 10 40.1879 10 39.0833V21.0294C10 19.9248 10.8954 19.0294 12 19.0294H15.0147Z" fill="#C8C8C8"/>
</svg>
