<svg width="25" height="24" viewBox="0 0 25 24" fill="none" xmlns="http://www.w3.org/2000/svg">
<path d="M12.8158 6C14.4715 6.0002 16.0603 6.62118 17.2368 7.728V6.6C17.2368 6.44087 17.3034 6.28826 17.4218 6.17574C17.5403 6.06321 17.7009 6 17.8684 6C18.0359 6 18.1966 6.06321 18.315 6.17574C18.4335 6.28826 18.5 6.44087 18.5 6.6V9.6C18.5 9.75913 18.4335 9.91174 18.315 10.0243C18.1966 10.1368 18.0359 10.2 17.8684 10.2H14.7105C14.543 10.2 14.3824 10.1368 14.2639 10.0243C14.1455 9.91174 14.0789 9.75913 14.0789 9.6C14.0789 9.44087 14.1455 9.28826 14.2639 9.17574C14.3824 9.06321 14.543 9 14.7105 9H16.7469C16.0986 8.23612 15.2192 7.67967 14.2275 7.40581C13.2357 7.13196 12.1793 7.15391 11.2011 7.46869C10.2229 7.78347 9.36992 8.37592 8.75749 9.16599C8.14505 9.95606 7.80265 10.9057 7.77654 11.8865C7.75043 12.8674 8.04188 13.8323 8.61149 14.6507C9.18111 15.4692 10.0015 16.1018 10.9617 16.4632C11.9219 16.8245 12.9758 16.8972 13.9808 16.6713C14.9859 16.4454 15.8938 15.9319 16.5818 15.2001C16.6369 15.1406 16.7038 15.092 16.7788 15.0572C16.8537 15.0223 16.9352 15.002 17.0185 14.9972C17.1018 14.9925 17.1852 15.0035 17.264 15.0295C17.3428 15.0556 17.4154 15.0963 17.4775 15.1491C17.5397 15.202 17.5902 15.2661 17.6262 15.3376C17.6621 15.4091 17.6828 15.4867 17.687 15.5658C17.6912 15.645 17.6789 15.7242 17.6507 15.7988C17.6226 15.8734 17.5791 15.9419 17.5229 16.0005C16.8205 16.7464 15.9328 17.3135 14.9407 17.6502C13.9487 17.9869 12.8837 18.0826 11.8428 17.9284C10.8019 17.7742 9.8181 17.3751 8.98103 16.7674C8.14396 16.1598 7.48019 15.3628 7.05016 14.4492C6.62013 13.5356 6.43749 12.5343 6.51888 11.5365C6.60027 10.5386 6.9431 9.57601 7.51616 8.73622C8.08921 7.89644 8.87429 7.20617 9.79991 6.72826C10.7255 6.25036 11.7623 6.00001 12.8158 6Z" fill="#3B3B3B"/>
</svg>
