<svg width="24" height="24" viewBox="0 0 24 24" fill="none" xmlns="http://www.w3.org/2000/svg">
<path fill-rule="evenodd" clip-rule="evenodd" d="M5.61734 11C5.61734 13.7614 7.85591 16 10.6173 16C13.3788 16 15.6173 13.7614 15.6173 11C15.6173 8.23858 13.3788 6 10.6173 6C7.85591 6 5.61734 8.23858 5.61734 11ZM4.61734 11C4.61734 14.3137 7.30363 17 10.6173 17C12.1917 17 13.6244 16.3936 14.6947 15.4017L18.6466 19.3536C18.8418 19.5488 19.1584 19.5488 19.3537 19.3536C19.5489 19.1583 19.5489 18.8417 19.3537 18.6464L15.37 14.6628C16.1521 13.6494 16.6173 12.3791 16.6173 11C16.6173 7.68629 13.931 5 10.6173 5C7.30363 5 4.61734 7.68629 4.61734 11Z" fill="#3B3B3B"/>
</svg>
