<svg width="32" height="32" viewBox="0 0 32 32" fill="none" xmlns="http://www.w3.org/2000/svg">
<path fill-rule="evenodd" clip-rule="evenodd" d="M8.15636 14.6667C8.15636 17.9805 10.8426 20.6667 14.1564 20.6667C17.4701 20.6667 20.1564 17.9805 20.1564 14.6667C20.1564 11.353 17.4701 8.66675 14.1564 8.66675C10.8426 8.66675 8.15636 11.353 8.15636 14.6667ZM6.15636 14.6667C6.15636 19.085 9.73808 22.6667 14.1564 22.6667C16.1354 22.6667 17.9467 21.9481 19.3433 20.7575L24.6263 26.0405C25.0168 26.431 25.65 26.431 26.0405 26.0405C26.431 25.65 26.431 25.0168 26.0405 24.6263L20.7072 19.293C20.7026 19.2884 20.698 19.2839 20.6934 19.2795C21.6149 17.9759 22.1564 16.3846 22.1564 14.6667C22.1564 10.2485 18.5746 6.66675 14.1564 6.66675C9.73808 6.66675 6.15636 10.2485 6.15636 14.6667Z" fill="#3B3B3B"/>
</svg>
