<svg width="24" height="24" viewBox="0 0 24 24" fill="none" xmlns="http://www.w3.org/2000/svg">
<path fill-rule="evenodd" clip-rule="evenodd" d="M13.3487 9.3815L13.1359 10.5593H14.3328H15.6015C16.1367 10.5593 16.7126 10.8588 17.1931 11.5261C17.6724 12.192 18 13.1623 18 14.2797C18 15.397 17.6724 16.3674 17.1931 17.0332C16.7126 17.7006 16.1367 18.0001 15.6015 18.0001H9.66667V18V10.5592V9.63695L10.8865 6.76335C11.0555 6.46746 11.3966 6.2068 11.8511 6.07774C12.3232 5.94366 12.7821 5.99105 13.0879 6.15597C13.6186 6.44215 13.7088 6.69056 13.7401 6.8498C13.7912 7.10914 13.7372 7.42162 13.6183 7.95957L13.6166 7.9671L13.6166 7.96715C13.5868 8.10213 13.5532 8.25391 13.5252 8.40503L13.5252 8.40503L13.5243 8.40986L13.3487 9.3815ZM8.1111 10.5592H6L6 18H8.1111V10.5593V10.5592ZM8.1111 19H6C5.44771 19 5 18.5523 5 18V10.5592C5 10.007 5.44772 9.55925 6 9.55925H8.61328L9.98511 6.32758C10.6202 5.12258 12.4051 4.65168 13.5625 5.27577C15.0574 6.08185 14.8135 7.18532 14.5947 8.17537L14.5947 8.17547C14.5659 8.30568 14.5376 8.43394 14.5137 8.5593L14.5084 8.58765L14.3328 9.5593H15.349H15.6015C17.4784 9.5593 19 11.6727 19 14.2797C19 16.8867 17.4784 19.0001 15.6015 19.0001H9.1111H8.1111V19Z" fill="#6B6B6B"/>
</svg>
