<svg width="24" height="24" viewBox="0 0 24 24" fill="none" xmlns="http://www.w3.org/2000/svg">
<path d="M11.6276 7.897C11.7563 8.04153 11.8248 8.22968 11.8191 8.42295C11.8134 8.61622 11.7339 8.80002 11.5969 8.93674C11.4599 9.07347 11.2757 9.15279 11.082 9.15847C10.8883 9.16416 10.6998 9.09579 10.555 8.96735L9.30358 7.71861V17.3517C9.30358 17.5883 9.2094 17.8152 9.04177 17.9824C8.87414 18.1497 8.64679 18.2437 8.40972 18.2437C8.17266 18.2437 7.94531 18.1497 7.77768 17.9824C7.61005 17.8152 7.51587 17.5883 7.51587 17.3517V7.71861L6.26448 8.96735C6.11965 9.09579 5.9311 9.16416 5.73742 9.15847C5.54373 9.15279 5.35955 9.07347 5.22253 8.93674C5.08552 8.80002 5.00603 8.61622 5.00033 8.42295C4.99463 8.22968 5.06314 8.04153 5.19186 7.897L7.87341 5.22113C8.01582 5.07952 8.20868 5 8.40972 5C8.61077 5 8.80363 5.07952 8.94604 5.22113L11.6276 7.897ZM18.7784 15.0327C18.636 14.891 18.4431 14.8115 18.2421 14.8115C18.041 14.8115 17.8482 14.891 17.7058 15.0327L16.4544 16.2814V6.64826C16.4544 6.4117 16.3602 6.18483 16.1926 6.01756C16.025 5.85028 15.7976 5.75631 15.5605 5.75631C15.3235 5.75631 15.0961 5.85028 14.9285 6.01756C14.7609 6.18483 14.6667 6.4117 14.6667 6.64826V16.2814L13.4153 15.0327C13.3465 14.9554 13.2626 14.893 13.1688 14.8493C13.075 14.8056 12.9732 14.7815 12.8697 14.7785C12.7662 14.7754 12.6632 14.7935 12.567 14.8316C12.4708 14.8698 12.3833 14.9271 12.3101 15.0002C12.2369 15.0732 12.1794 15.1605 12.1412 15.2565C12.103 15.3525 12.0849 15.4553 12.0879 15.5586C12.091 15.6619 12.1151 15.7634 12.159 15.8571C12.2028 15.9507 12.2653 16.0344 12.3427 16.103L15.0242 18.7789C15.1666 18.9205 15.3595 19 15.5605 19C15.7616 19 15.9544 18.9205 16.0968 18.7789L18.7784 16.103C18.9203 15.9609 19 15.7684 19 15.5678C19 15.3672 18.9203 15.1748 18.7784 15.0327Z" fill="rgba(59, 59, 59, 1)"/>
</svg>
