<svg width="52" height="72" viewBox="0 0 53 72" fill="none" xmlns="http://www.w3.org/2000/svg">
<path fill-rule="evenodd" clip-rule="evenodd" d="M30.2071 18.2929C30.5976 18.6834 30.5976 19.3166 30.2071 19.7071C29.8166 20.0976 29.1834 20.0976 28.7929 19.7071L27.5 18.4142V28C27.5 28.5523 27.0523 29 26.5 29C25.9477 29 25.5 28.5523 25.5 28L25.5 18.4142L24.2071 19.7071C23.8166 20.0976 23.1834 20.0976 22.7929 19.7071C22.4024 19.3166 22.4024 18.6834 22.7929 18.2929L25.7929 15.2929C26.1834 14.9024 26.8166 14.9024 27.2071 15.2929L30.2071 18.2929ZM35.5 26C35.5 25.4477 35.0523 25 34.5 25C33.9477 25 33.5 25.4477 33.5 26V31L19.5 31L19.5 26C19.5 25.4477 19.0523 25 18.5 25C17.9477 25 17.5 25.4477 17.5 26V32C17.5 32.5523 17.9477 33 18.5 33H34.5C35.0523 33 35.5 32.5523 35.5 32V26Z" fill="#6B6B6B"/>
<path d="M5.39258 56.665C5.39258 58.9648 6.91602 61.3232 8.76172 62.2314L8.05859 63.1543C6.62305 62.3999 5.42188 60.8618 4.85059 59.0527C4.26465 60.979 3.03418 62.6196 1.56934 63.4033L0.836914 62.4805C2.74121 61.543 4.25 59.0381 4.26465 56.665V54.292H5.39258V56.665ZM11.1055 53.1641V58.4521H13.2881V59.4482H11.1055V66.1865H9.96289V53.1641H11.1055ZM18.6787 55.9619C18.6787 57.7197 20.0703 59.3018 22.0186 59.917L21.4326 60.8398C19.9165 60.3271 18.708 59.2578 18.1221 57.8809C17.5508 59.3677 16.3276 60.5396 14.7822 61.1035L14.1816 60.1807C16.1299 59.4922 17.5215 57.8076 17.5215 55.9619V55.2002H14.4746V54.2627H21.6816V55.2002H18.6787V55.9619ZM24.7432 53.1787V62.7295H23.6006V53.1787H24.7432ZM25.1533 64.9414V65.9082H16.335V61.8213H17.4775V64.9414H25.1533ZM38.835 59.3604V60.3271H26.9551V59.3604H38.835ZM37.4434 57.1777V58.1152H28.4639V53.6914H37.3555V54.6582H29.5918V57.1777H37.4434ZM32.8877 61.4697C35.6855 61.4697 37.3555 62.3193 37.3701 63.8135C37.3555 65.3223 35.6855 66.1572 32.8877 66.1572C30.0752 66.1572 28.3906 65.3223 28.3906 63.8135C28.3906 62.3193 30.0752 61.4697 32.8877 61.4697ZM32.8877 62.3633C30.793 62.3779 29.5479 62.9053 29.5625 63.8135C29.5479 64.7363 30.793 65.249 32.8877 65.249C34.9531 65.249 36.2129 64.7363 36.2129 63.8135C36.2129 62.9053 34.9531 62.3779 32.8877 62.3633ZM51.8281 60.3418V61.2939H39.9043V60.3418H45.2949V58.9648H41.457V55.7861H49.1328V54.4385H41.4131V53.501H50.29V56.6504H42.5996V58.042H50.5684V58.9648H46.4229V60.3418H51.8281ZM50.3633 62.29V66.0693H49.2061V63.2275H41.2373V62.29H50.3633Z" fill="#202020"/>
</svg>
