<svg width="32" height="32" viewBox="0 0 32 32" fill="none" xmlns="http://www.w3.org/2000/svg">
<path fill-rule="evenodd" clip-rule="evenodd" d="M16.481 6.20457C16.123 5.93181 15.627 5.93181 15.269 6.20457L7.78791 11.9044C7.29142 12.2827 7 12.8711 7 13.4953V23C7 24.212 8.06538 25 9.125 25H12.875H18.875H22.625C23.6846 25 24.75 24.212 24.75 23V13.4953C24.75 12.8711 24.4586 12.2827 23.9621 11.9044L16.481 6.20457ZM19.875 23H22.625C22.6886 23 22.7301 22.9795 22.75 22.9647V13.4953L15.875 8.25718L9 13.4953L8.39396 12.6998L9 13.4953V22.9647C9.01992 22.9795 9.06142 23 9.125 23H11.875V17C11.875 16.4477 12.3227 16 12.875 16H18.875C19.4273 16 19.875 16.4477 19.875 17V23ZM13.875 23H17.875V18H13.875V23Z" fill="#000"/>
</svg>
