<svg width="32" height="32" viewBox="0 0 32 32" fill="none" xmlns="http://www.w3.org/2000/svg">
<path fill-rule="evenodd" clip-rule="evenodd" d="M18.9944 13C18.9944 14.6569 17.6512 16 15.9944 16C14.3375 16 12.9944 14.6569 12.9944 13C12.9944 11.3431 14.3375 10 15.9944 10C17.6512 10 18.9944 11.3431 18.9944 13ZM20.9944 13C20.9944 15.7614 18.7558 18 15.9944 18C13.233 18 10.9944 15.7614 10.9944 13C10.9944 10.2386 13.233 8 15.9944 8C18.7558 8 20.9944 10.2386 20.9944 13ZM11.0189 18.2903C11.1571 18.1835 11.3247 18.1177 11.4993 18.1118C12.0104 18.0945 12.2699 18.2136 12.4696 18.4393C12.8547 18.8748 12.6016 19.5818 12.1486 19.9462C11.3157 20.616 10.6717 21.4973 10.3004 22.4998H21.6874C21.3162 21.4975 20.6724 20.6164 19.8398 19.9466C19.3867 19.5822 19.1338 18.875 19.519 18.4395C19.7187 18.2137 19.9781 18.0947 20.4892 18.1121C20.6637 18.1181 20.8312 18.1839 20.9694 18.2906C22.5907 19.5427 23.7096 21.3928 23.9806 23.502C24.051 24.0498 23.5965 24.4998 23.0442 24.4998H8.94358C8.39129 24.4998 7.93682 24.0498 8.00722 23.502C8.27828 21.3927 9.39736 19.5424 11.0189 18.2903Z" fill="#47BEC0"/>
</svg>
