<svg width="32" height="32" viewBox="0 0 32 32" fill="none" xmlns="http://www.w3.org/2000/svg">
<rect width="32" height="32" rx="16" fill="#D9F2F3"/>
<path fill-rule="evenodd" clip-rule="evenodd" d="M17.1985 14.6724L20.3257 11.5453L21.3652 12.5847L18.238 15.7119L16.8035 16.1069L17.1985 14.6724ZM21.3864 10.4846L22.4258 11.5241L23.38 10.5699L23.3817 10.5654C23.3977 10.5215 23.4087 10.4732 23.4102 10.424C23.4116 10.3802 23.4063 10.3208 23.3736 10.2403C23.3404 10.1584 23.2638 10.0178 23.0782 9.83224C22.8926 9.64666 22.752 9.57003 22.6701 9.53681C22.5896 9.50411 22.5302 9.49883 22.4864 9.50018C22.4373 9.50171 22.3889 9.51269 22.345 9.52875L22.3406 9.5304L21.3864 10.4846ZM21.3718 8.37788C21.4043 8.34538 21.4388 8.31511 21.4776 8.2906C21.7425 8.12365 22.892 7.5247 24.1388 8.77158C25.3857 10.0185 24.7868 11.1679 24.6198 11.4328C24.5953 11.4717 24.565 11.5062 24.5325 11.5387L19.2052 16.866C19.0827 16.9885 18.9306 17.077 18.7636 17.123L16.3533 17.7867C15.6052 17.9927 14.9177 17.3052 15.1237 16.5571L15.7874 14.1468C15.8334 13.9799 15.922 13.8277 16.0444 13.7052L21.3718 8.37788ZM9.5 9.76717C8.94772 9.76717 8.5 10.2149 8.5 10.7672V23.2833C8.5 23.8356 8.94772 24.2833 9.5 24.2833H22.9101C23.4624 24.2833 23.9101 23.8356 23.9101 23.2833V17.9192C23.9101 17.3669 23.4624 16.9192 22.9101 16.9192C22.3578 16.9192 21.9101 17.3669 21.9101 17.9192V22.2833H10.5V11.7672H15.311C15.8633 11.7672 16.311 11.3195 16.311 10.7672C16.311 10.2149 15.8633 9.76717 15.311 9.76717H9.5Z" fill="#3B3B3B"/>
</svg>
