<svg width="24" height="12" viewBox="0 0 24 12" fill="none" xmlns="http://www.w3.org/2000/svg">
<path d="M18.5488 1.46777C18.5557 3.55273 20.9346 5.40527 23.0469 5.80176L22.5547 6.7041C20.7158 6.28027 18.7881 4.97461 18.002 3.19043C17.209 4.97461 15.2881 6.27344 13.4492 6.7041L12.957 5.80176C15.0625 5.39844 17.4209 3.55957 17.4277 1.46777V0.538086H18.5488V1.46777ZM12.4922 10.1768V9.28809H23.6211V10.1768H12.4922Z" fill="white"/>
<path d="M11.5078 6.64941V7.55176H6.43555V11.8311H5.38281V7.55176H0.378906V6.64941H11.5078ZM1.63672 2.84863C1.64355 1.20117 3.35938 0.175781 5.91602 0.168945C8.46582 0.175781 10.1953 1.20117 10.1953 2.84863C10.1953 4.46875 8.46582 5.49414 5.91602 5.4873C3.35938 5.49414 1.64355 4.46875 1.63672 2.84863ZM2.74414 2.84863C2.73047 3.92871 4.02246 4.62598 5.91602 4.62598C7.80957 4.62598 9.09473 3.92871 9.10156 2.84863C9.09473 1.74805 7.80957 1.04395 5.91602 1.04395C4.02246 1.04395 2.73047 1.74805 2.74414 2.84863Z" fill="white"/>
</svg>
