<svg width="32" height="32" viewBox="0 0 32 32" fill="none" xmlns="http://www.w3.org/2000/svg">
<rect width="32" height="32" rx="8" fill="white"/>
<path d="M28.2004 1.95605V28.5839H22.6408L21.6654 25.1701H21.2752C20.7225 26.0804 20.0072 26.8282 19.1294 27.4135C18.2841 27.9662 17.3412 28.3726 16.3008 28.6327C15.2604 28.9253 14.1875 29.0716 13.082 29.0716C11.1963 29.0716 9.53815 28.7302 8.1076 28.0475C6.67704 27.3647 5.57161 26.308 4.79131 24.8775C4.011 23.4469 3.62085 21.5937 3.62085 19.3178L3.62085 1.95605L10.8874 1.95605V17.5134C10.8874 19.3991 11.2288 20.8296 11.9116 21.805C12.5943 22.7804 13.6835 23.2681 15.1791 23.2681C16.6747 23.2681 17.8289 22.9267 18.6417 22.2439C19.487 21.5612 20.0723 20.5695 20.3974 19.269C20.755 17.9685 20.9338 16.3754 20.9338 14.4897V1.95605L28.2004 1.95605Z" fill="black"/>
</svg>
